# xmcd
#
# Track frame offsets:
#	150
#	11413
#	23195
#	35872
#	48347
#	60130
#	74267
#	88450
#	100185
#	127164
#	141339
#	166115
#	179431
#	193532
#	207273
#	221586
#	234370
#	247563
#
# Disc length: 3434
#
# Revision: 6
# Processed by: cddbd v1.5.1PL0 Copyright (c) Steve Scherf et al.
# Submitted via: dBpowerAMP V4.0
# Normalized: r5:TRMNUM
#
DISCID=f80d6812
DTITLE=Muddy Waters - The Blues. Rolling Stone 1941-1950 [CD2]
DYEAR=1900
DGENRE=blues
TTITLE0=Muddy Jumps One
TTITLE1=Hard Days
TTITLE2=Little Geneva
TTITLE3=Canary Bird
TTITLE4=Burying Ground
TTITLE5=Screamin' and Cryin'
TTITLE6=Where's My Woman Been
TTITLE7=Last Time I Fool Around With You
TTITLE8=Rollin' and Tumblin'
TTITLE9=Rolling Stone
TTITLE10=Rollin' and Tumblin' #2
TTITLE11=Walking Blues
TTITLE12=You're Gonna Need My Help I Said
TTITLE13=Sad Letter Blues
TTITLE14=Early Morning Blues
TTITLE15=Appealing Blues
TTITLE16=Louisana Blues
TTITLE17=Evans' Shuffle
EXTD=
EXTT0=
EXTT1=
EXTT2=
EXTT3=
EXTT4=
EXTT5=
EXTT6=
EXTT7=
EXTT8=
EXTT9=
EXTT10=
EXTT11=
EXTT12=
EXTT13=
EXTT14=
EXTT15=
EXTT16=
EXTT17=
PLAYORDER=
